<svg xmlns="http://www.w3.org/2000/svg" xmlns:xlink="http://www.w3.org/1999/xlink" width="500" zoomAndPan="magnify" viewBox="0 0 375 374.999991" height="500" preserveAspectRatio="xMidYMid meet" version="1.0"><defs><g/><clipPath id="9b47a843a8"><path d="M 198.800781 121.589844 L 330.050781 121.589844 L 330.050781 220.589844 L 198.800781 220.589844 Z M 198.800781 121.589844 " clip-rule="nonzero"/></clipPath></defs><g clip-path="url(#9b47a843a8)"><path fill="#ffffff" d="M 264.425781 121.59375 L 253.488281 220.585938 L 264.425781 220.585938 L 275.363281 121.59375 Z M 230.011719 139.703125 L 198.800781 171.089844 L 230.011719 202.476562 L 237.746094 194.699219 L 214.269531 171.089844 L 237.746094 147.480469 Z M 298.84375 139.703125 L 291.109375 147.480469 L 314.585938 171.089844 L 291.109375 194.699219 L 298.84375 202.476562 L 330.050781 171.089844 Z M 298.84375 139.703125 " fill-opacity="1" fill-rule="nonzero"/></g><g fill="#ffffff" fill-opacity="1"><g transform="translate(54.629023, 194.927193)"><g><path d="M 3.074219 0 L 10.058594 0 C 21.304688 0 26.542969 -6.425781 26.542969 -16.136719 L 26.542969 -48.898438 L 20.398438 -48.898438 L 20.398438 -16.484375 C 20.398438 -9.988281 17.882812 -5.867188 10.058594 -5.867188 L 3.074219 -5.867188 Z M 3.074219 0 "/></g></g></g><g fill="#ffffff" fill-opacity="1"><g transform="translate(93.463388, 194.927193)"><g><path d="M 7.125 0 L 13.273438 0 L 13.273438 -37.441406 L 29.480469 -12.992188 L 34.507812 -12.992188 L 50.714844 -37.371094 L 50.714844 0 L 56.863281 0 L 56.863281 -48.898438 L 51.132812 -48.898438 L 32.0625 -19.910156 L 12.851562 -48.898438 L 7.125 -48.898438 Z M 7.125 0 "/></g></g></g></svg>