<svg xmlns="http://www.w3.org/2000/svg" xmlns:xlink="http://www.w3.org/1999/xlink" width="500" zoomAndPan="magnify" viewBox="0 0 375 374.999991" height="500" preserveAspectRatio="xMidYMid meet" version="1.0"><defs><g/><clipPath id="f989301fec"><path d="M 146.316406 101.652344 L 192.066406 101.652344 L 192.066406 240.402344 L 146.316406 240.402344 Z M 146.316406 101.652344 " clip-rule="nonzero"/></clipPath></defs><g fill="#000000" fill-opacity="1"><g transform="translate(146.317084, 223.318733)"><g><path d="M 19.710938 0 L 12.5 -107.085938 C 12.378906 -109.128906 12.980469 -110.332031 13.820312 -110.332031 C 14.421875 -110.332031 15.265625 -109.730469 15.984375 -108.410156 C 17.789062 -105.40625 59.011719 -28.003906 59.011719 -28.003906 C 59.011719 -28.003906 94.707031 -104.5625 96.75 -108.410156 C 97.472656 -109.730469 98.191406 -110.332031 98.792969 -110.332031 C 99.636719 -110.332031 100.238281 -109.128906 100.238281 -107.085938 L 100.238281 0 L 110.332031 0 L 110.332031 -120.1875 L 99.273438 -120.1875 L 64.539062 -46.03125 C 63.699219 -44.347656 62.859375 -43.507812 61.898438 -43.507812 C 60.933594 -43.507812 59.972656 -44.347656 59.132812 -45.910156 L 19.46875 -120.1875 L 9.613281 -120.1875 L 9.613281 0 Z M 19.710938 0 "/></g></g></g><g clip-path="url(#f989301fec)"><path fill="#ffffff" d="M 146.316406 101.652344 L 192.066406 101.652344 L 192.066406 240.402344 L 146.316406 240.402344 L 146.316406 101.652344 " fill-opacity="1" fill-rule="nonzero"/></g><g fill="#000000" fill-opacity="1"><g transform="translate(121.499997, 223.318733)"><g><path d="M 8.414062 15.382812 C 12.859375 18.390625 17.90625 19.710938 25.359375 19.710938 C 46.632812 19.710938 54.203125 3.003906 54.203125 -8.292969 L 54.203125 -120.1875 L 44.589844 -120.1875 L 44.589844 -5.046875 C 44.589844 5.769531 39.179688 17.308594 24.398438 17.308594 C 17.789062 17.308594 12.859375 15.625 9.855469 13.101562 Z M 8.414062 15.382812 "/></g></g></g></svg>